<?xml version="1.0" encoding="UTF-8" standalone="no"?>
<svg
   xmlns:dc="http://purl.org/dc/elements/1.1/"
   xmlns:cc="http://creativecommons.org/ns#"
   xmlns:rdf="http://www.w3.org/1999/02/22-rdf-syntax-ns#"
   xmlns:svg="http://www.w3.org/2000/svg"
   xmlns="http://www.w3.org/2000/svg"
   xmlns:sodipodi="http://sodipodi.sourceforge.net/DTD/sodipodi-0.dtd"
   xmlns:inkscape="http://www.inkscape.org/namespaces/inkscape"
   width="3697.4011"
   height="3702.3445"
   viewBox="0 0 3697.4011 3702.3445"
   version="1.1"
   xml:space="preserve"
   style="clip-rule:evenodd;fill-rule:evenodd;stroke-linejoin:round;stroke-miterlimit:2"
   id="svg42"
   sodipodi:docname="covid.svg"
   inkscape:version="0.92.5 (2060ec1f9f, 2020-04-08)"><metadata
   id="metadata48"><rdf:RDF><cc:Work
       rdf:about=""><dc:format>image/svg+xml</dc:format><dc:type
         rdf:resource="http://purl.org/dc/dcmitype/StillImage" /><dc:title></dc:title></cc:Work></rdf:RDF></metadata><defs
   id="defs46" /><sodipodi:namedview
   pagecolor="#ffffff"
   bordercolor="#666666"
   borderopacity="1"
   objecttolerance="10"
   gridtolerance="10"
   guidetolerance="10"
   inkscape:pageopacity="0"
   inkscape:pageshadow="2"
   inkscape:window-width="1920"
   inkscape:window-height="993"
   id="namedview44"
   showgrid="false"
   inkscape:zoom="0.064727046"
   inkscape:cx="-1637.176"
   inkscape:cy="-947.55119"
   inkscape:window-x="1920"
   inkscape:window-y="20"
   inkscape:window-maximized="1"
   inkscape:current-layer="svg42"
   fit-margin-top="0"
   fit-margin-left="0"
   fit-margin-right="0"
   fit-margin-bottom="0" />
    
    
    
    
    <g
   id="g878"
   transform="translate(-34.139688,-1266.799)"><g
     id="g4"
     transform="matrix(1.2574751,0,0,1.2574751,-56.403145,1078.4217)">
        <path
   inkscape:connector-curvature="0"
   id="path2"
   style="fill:#4682b4"
   d="m 1361.38,508.877 c 61.84,-10.733 125.4,-16.325 190.25,-16.325 16.07,0 32.06,0.343 47.96,1.023 1.28,-6.399 2.17,-12.71 2.58,-18.891 5.06,-75.199 -75.49,-96.988 -71.26,-159.837 1.06,-15.719 7.76,-28.059 17.75,-37.695 20.73,-21.474 58,-32.468 100.87,-31.963 5.43,-0.105 10.27,0.012 14.29,0.282 4.33,0.291 9.57,0.864 15.41,1.766 42.76,5.253 74.98,19.595 92.03,41.207 9.47,10.83 15.08,24.107 13.99,40.266 -0.14,2.06 -0.38,4.101 -0.72,6.125 -0.77,6.901 -2.98,13.481 -6.43,19.638 -23.11,48.036 -93.39,85.565 -96.09,125.746 -0.36,5.42 0.26,12.269 1.66,20.146 51.45,6.129 101.82,15.794 150.86,28.744 11.93,-8.139 26.6,-17.292 44.19,-27.713 50.88,-30.145 138.36,-200.498 121.75,-232.284 -52.36,-100.206 -33.55,-150.405 97.31,-98.669 129.86,51.342 110.47,97.461 3.5,137.499 -33.93,12.696 -108.69,154.163 -76.04,253.119 5.57,16.882 10,31.569 13.32,44.276 63.35,31.121 123.29,68.126 179.11,110.298 48.66,-33.333 119.4,-111 116.78,-132.645 -9.95,-82.473 15.91,-115.569 92.18,-54.04 75.68,61.06 50.47,91.08 -33.17,100.692 -22.91,2.632 -91.55,69.634 -111.89,138.088 5.44,4.787 10.84,9.627 16.21,14.537 8.48,-37.717 10.71,-75.22 44.42,-101.653 14.91,-11.688 30.87,-16.203 46.78,-15.946 34.35,-0.658 71.28,20.184 101.92,54.639 4.03,4.226 7.44,8.169 10.11,11.577 2.88,3.67 6.16,8.286 9.59,13.646 26.28,38.145 36.75,75.171 29.67,105.936 -2.87,16.149 -10.75,31.188 -26.07,43.203 -1.95,1.528 -3.96,2.957 -6.02,4.296 -6.77,4.894 -14.3,8.391 -22.35,10.559 -19.29,6.411 -41.15,8.079 -63.18,8.387 30.82,39.29 59.04,80.715 84.39,123.979 6.88,0.06 14.19,0.18 21.93,0.36 60.42,1.43 247.91,-91.17 257.54,-125.022 30.35,-106.718 80.23,-137.513 144.49,-30.165 63.78,106.532 16.32,133.757 -94.27,112.037 -35.07,-6.891 -192.39,68.95 -237.04,164.74 -6.02,12.93 -11.63,24.4 -16.88,34.49 35.89,91.95 59.82,189.86 69.89,291.81 30.33,11.43 61.53,19.26 89.76,18.93 87.15,-1.04 104.92,-95.88 177.76,-96.74 18.22,-0.22 33.05,6.38 45.07,17.01 26.65,21.93 42.73,63.9 46.06,113.37 0.62,6.25 0.92,11.85 0.98,16.51 0.06,5.01 -0.12,11.1 -0.63,17.92 -2.15,49.77 -15.75,88.23 -39.11,109.85 -11.61,11.91 -26.41,19.59 -45.14,19.81 -2.38,0.03 -4.75,-0.07 -7.1,-0.28 -8.04,-0.25 -15.83,-2.19 -23.25,-5.62 -57.49,-22.25 -107.17,-99.84 -153.73,-99.29 -18.66,0.22 -51.06,11.69 -85.63,26.68 -2.86,113.91 -22.98,223.57 -57.84,326.51 54.45,30.06 126.36,56.02 143.46,46.74 80.74,-43.82 124.09,-30.13 89.11,74.66 -34.72,103.99 -74.69,89.74 -115.2,6.04 -9.24,-19.09 -75.74,-53.31 -142.48,-60.55 -38.47,93.17 -89.31,179.95 -150.5,258.32 27.34,29.45 55.03,52.63 67.12,52.04 82.98,-4.05 114.14,24.11 47.34,95.8 -66.3,71.14 -94.45,43.85 -98.08,-40.26 -0.55,-12.82 -19.98,-41.2 -48.62,-68.17 -20.05,23.4 -41.07,45.96 -62.96,67.59 35.84,5.92 71.07,8.55 94.4,39.19 11.03,14.5 14.58,30.35 13.2,46.34 -1.72,34.46 -25.83,72.39 -63.57,104.56 -4.65,4.22 -8.96,7.8 -12.67,10.62 -1.81,1.38 -3.83,2.85 -6.03,4.38 26.11,50.74 60.34,98.42 78.17,100.24 100.01,10.2 128.06,48.74 25.59,120.53 -101.69,71.24 -126.42,34.27 -103.76,-64.73 4.54,-19.8 -21.02,-76.78 -62.97,-122.23 -20.79,7.15 -40.18,9.28 -57.28,6.08 -16.48,-2.24 -31.46,-9.54 -42.8,-24.44 -1.45,-1.9 -2.78,-3.85 -4.02,-5.87 -4.59,-6.6 -7.67,-14.02 -9.35,-22.02 -1.8,-6.53 -3.01,-13.38 -3.77,-20.46 -18.9,-5.96 -32.84,-11.52 -42.47,-17.02 -54.81,33.85 -112.81,63.06 -173.45,87.06 -4.04,12.93 -9.23,27.85 -15.57,44.97 -20.93,56.53 18.04,249.18 51.2,264.23 104.54,47.49 121.5,99.83 -14.09,141.15 -134.55,41.01 -148.48,-8.42 -89.71,-108.49 18.64,-31.73 -12.06,-193.05 -100.32,-252.02 -16.77,-11.22 -30.72,-21.13 -42.03,-29.96 -40.51,7.26 -81.77,12.31 -123.67,15.03 -5.33,12.05 -17.65,29.16 -37.64,53.55 -26.83,32.72 -44.32,168.95 -25.5,186.35 59.31,54.86 58.83,93.31 -41.4,90.26 -99.47,-3.02 -97.61,-38.85 -35.57,-91.91 19.68,-16.82 35.62,-130.47 -10.18,-189.28 -18.19,-23.36 -29.37,-40.19 -34.37,-52.26 -30.8,-3.1 -61.24,-7.48 -91.19,-13.05 -10.5,12.41 -25.25,27.49 -44.63,46 -40.18,38.39 -91.3,216.49 -71.88,243.33 61.25,84.6 52.31,135.73 -70.62,112.2 -122,-23.35 -111.94,-70.73 -23.92,-129.36 13.29,-8.86 30.3,-47.12 39.75,-94.2 -16.16,4.77 -34.77,4.42 -53.66,-0.78 -3.7,-0.85 -6.95,-1.8 -9.59,-2.75 -2.85,-1.01 -6.24,-2.44 -9.94,-4.27 -27.49,-12.17 -45.41,-30.66 -51.09,-53.03 -3.48,-11.37 -3.68,-24.25 1.43,-38.55 0.64,-1.82 1.36,-3.59 2.13,-5.35 2.39,-6.06 5.67,-11.59 9.68,-16.52 21.9,-29.89 60.82,-49.44 83.57,-72.91 -8.86,-20.16 -14,-35.46 -15.66,-46.84 -49.26,-20.13 -96.76,-43.71 -142.169,-70.43 -10.411,9.78 -30.72,21.42 -63.227,37.29 -40.171,19.61 -129.507,144.13 -123.505,169.62 18.915,80.37 -2.611,117.54 -83.842,68.93 -80.613,-48.24 -59.382,-82.24 21.094,-105.59 25.519,-7.4 101.158,-110.66 95.599,-188.71 -3.552,-49.88 -1.388,-75.07 7.713,-84.25 -57.318,-47.59 -109.762,-100.85 -156.494,-158.95 -8.282,4.6 -15.927,9.69 -22.674,15.32 -54.279,45.27 -16.344,114.67 -61.71,152.5 -11.346,9.47 -24.094,12.87 -37.158,12.26 -28.115,-0.3 -59.96,-18.76 -87.673,-48.51 -3.621,-3.65 -6.714,-7.06 -9.16,-9.99 -2.635,-3.16 -5.674,-7.12 -8.882,-11.71 -24.418,-32.75 -35.785,-64.17 -32.289,-89.88 1.148,-13.52 6.477,-25.97 18.136,-35.69 1.483,-1.24 3.021,-2.39 4.613,-3.47 5.186,-3.95 11.097,-6.71 17.54,-8.33 47.671,-15.27 119.092,8.63 148.095,-15.56 6.118,-5.1 13.018,-14.14 20.218,-25.52 -21.369,-31.2 -41.182,-63.56 -59.31,-96.92 -10.532,9.69 -39.413,4.81 -97.86,-13.72 -49.635,-15.73 -211.951,27.26 -222.778,57 -34.136,93.75 -77.848,111.02 -121.565,-5.85 -43.385,-115.99 -1.977,-130.46 87.226,-83.58 28.286,14.87 164.324,-19.44 209.297,-99.46 25.188,-44.81 42.257,-67.57 55.701,-73.18 -20.817,-71.78 -34.552,-146.53 -40.402,-223.48 -59.229,-8.91 -153.8,-4.08 -166.602,12.08 -51.577,65.12 -93.293,70.04 -103.264,-27.44 -9.894,-96.74 29.176,-99.96 94.869,-47.32 17.521,14.05 108.898,15.94 171.803,-15.11 -0.014,-2.35 -0.022,-4.73 -0.022,-7.11 0,-58.56 4.56,-116.07 13.354,-172.25 -9.858,-10.27 -21.233,-23.25 -34.477,-39.13 -11.297,-13.55 -36.642,-29.11 -66.822,-43.46 -43.048,8.7 -77.022,39.58 -121.238,24.04 -15.321,-5.38 -25.892,-14.98 -32.962,-26.83 -7.498,-11.6 -11.869,-25.85 -13.284,-41.69 -0.682,0.29 -1.304,0.62 -1.867,0.97 -87.799,55.53 -137.832,43.39 -106.443,-77.38 30.842,-118.67 76.486,-107.07 128.11,-18.23 15.499,-33.01 36.256,-55.38 59.947,-64.17 13.091,-5.62 27.642,-7.01 43.385,-1.48 2.003,0.7 3.96,1.5 5.878,2.38 6.66,2.64 12.644,6.51 17.898,11.41 34.276,28.35 53.735,83.64 81.141,110.32 15.155,-1.97 29.711,-5.59 43.048,-11.26 17.835,-7.58 33.032,-13.5 45.901,-17.82 21.488,-61.53 48.263,-120.58 79.78,-176.61 -35.816,-25.56 -72.252,-45.17 -84.853,-41.69 -80.078,22.1 -116.65,1.44 -67.135,-83.121 49.138,-83.916 82.571,-63.445 104.502,17.835 3.713,13.766 34.355,41.162 73.93,62.426 37.005,-59.144 79.446,-114.549 126.618,-165.504 -0.964,-6.157 -1.924,-12.678 -2.89,-19.593 -1.969,-14.097 -11.011,-34.139 -23.908,-56.113 -14.713,-1.987 -28.492,-6.784 -40.553,-18.378 -10.766,-10.348 -15.64,-22.732 -16.544,-35.854 -0.807,-7.673 -0.298,-15.765 1.409,-24.105 -30.06,-36.116 -60.479,-64.225 -75.047,-64.113 -103.881,0.795 -139.96,-35.932 -49.534,-121.921 89.739,-85.334 122.137,-49.851 118.32,55.251 -0.48,13.198 13.966,40.213 37.536,68.95 1.8,-2.27 3.666,-4.528 5.595,-6.771 3.231,-4.003 6.27,-7.45 8.916,-10.203 2.849,-2.964 6.457,-6.417 10.669,-10.104 29.876,-27.837 59.931,-42.49 86.016,-41.691 13.635,-0.27 26.687,3.752 37.75,14.385 1.407,1.353 2.737,2.769 3.995,4.248 4.548,4.769 7.985,10.388 10.353,16.657 16.876,37.397 9.761,93.162 21.238,126.96 63.018,-49.041 131.46,-91.418 204.28,-126.075 -20.23,-45.857 -47.06,-89.949 -61.45,-93.395 -80.785,-19.351 -102.817,-55.115 -18.604,-105.216 83.574,-49.72 102.954,-15.64 82.874,66.116 -4,16.25 15.41,66.857 48.18,109.795 29.52,-12.26 59.7,-23.276 90.45,-32.978 1.97,-3.705 4.04,-7.544 6.21,-11.526 25.19,-46.152 14.68,-216.098 -12.45,-232.846 -85.54,-52.805 -93.97,-99.717 29.55,-119.617 122.58,-19.748 128.71,24.311 65.13,103.506 -19.91,24.804 -13.21,163.722 54.32,225.732 z" />
    </g><g
     id="g18"
     transform="matrix(2.2391958,0,0,2.2391958,199.69906,1404.6158)">
        <path
   inkscape:connector-curvature="0"
   id="path6"
   style="fill:#ffffff;fill-rule:nonzero"
   d="m 1102.25,1192.59 c 0,17.08 -18.08,30.89 -40.38,30.89 0,0 -161.491,31.96 -311.101,31.96 -118.411,0 -309.646,-31.96 -309.646,-31.96 -22.275,0 -40.349,-13.81 -40.349,-30.89 V 902.364 c 0,-17.118 18.073,-30.887 40.349,-30.887 0,0 182.647,31.605 309.646,29.98 123.758,-1.584 311.101,-29.98 311.101,-29.98 22.3,0 40.38,13.769 40.38,30.887 z" />
        <path
   inkscape:connector-curvature="0"
   id="path8"
   style="fill:#ffffff;fill-rule:nonzero"
   d="m 451.286,939.711 c -0.619,1.999 -2.832,3.092 -4.941,2.439 L 140.582,848.203 c -2.11,-0.653 -3.319,-2.805 -2.701,-4.804 L 133.772,809.4 c 0.619,-2 2.832,-3.092 4.942,-2.438 l 318.934,98.657 c 2.11,0.653 3.319,2.804 2.701,4.804 z" />
        <g
   id="g12"
   transform="translate(10.6699)">
            <path
   inkscape:connector-curvature="0"
   id="path10"
   style="fill:#ffffff;fill-rule:nonzero"
   d="m 642.712,1121.81 c 0.631,2 -0.565,4.16 -2.671,4.82 l -305.831,99.13 c -2.106,0.66 -4.326,-0.42 -4.956,-2.41 l -24.873,-26.76 c -0.631,-2 0.565,-4.16 2.671,-4.82 l 321.464,-101.6 c 2.106,-0.67 4.326,0.41 4.957,2.41 z" />
        </g>
        <path
   inkscape:connector-curvature="0"
   id="path14"
   style="fill:#ffffff;fill-rule:nonzero"
   d="m 1054.15,939.711 c 0.62,1.999 2.83,3.092 4.94,2.439 l 311.92,-95.572 c 2.11,-0.653 2.22,-2.315 2.7,-4.804 l 4.27,-33.941 c 0.11,-1.991 0.25,-3.881 -1.86,-3.227 l -328.33,101.013 c -2.11,0.653 -3.32,2.804 -2.7,4.804 z" />
        <path
   inkscape:connector-curvature="0"
   id="path16"
   style="fill:#ffffff;fill-rule:nonzero"
   d="m 857.287,1121.81 c -0.631,2 0.566,4.16 2.672,4.82 l 303.551,98.09 c 2.11,0.67 4.32,-0.41 4.95,-2.41 l 27.16,-25.72 c 0.63,-2 -0.57,-4.16 -2.67,-4.82 l -321.468,-101.6 c -2.105,-0.67 -4.326,0.41 -4.957,2.41 z" />
    </g><g
     id="g28"
     transform="matrix(2.1104614,0,0,2.1104614,320.08083,1498.426)">
        <path
   inkscape:connector-curvature="0"
   id="path20"
   style="fill:#ffffff;fill-rule:nonzero"
   d="m 434.723,844.698 c -158.657,0 -287.807,-129.078 -287.807,-287.819 0,-158.688 129.125,-287.807 287.807,-287.807 158.677,0 287.735,129.163 287.735,287.807 0,158.741 -129.058,287.819 -287.735,287.819 z" />
        <path
   inkscape:connector-curvature="0"
   id="path22"
   style="fill:#231f20;fill-rule:nonzero"
   d="m 432.565,405.891 c 88.372,0 159.987,71.612 159.987,159.943 0,88.329 -71.615,159.94 -159.987,159.94 -88.334,0 -159.964,-71.612 -159.964,-159.94 0,-88.331 71.629,-159.943 159.964,-159.943 z" />
        <path
   inkscape:connector-curvature="0"
   id="path24"
   style="fill:#ffffff;fill-rule:nonzero"
   d="m 473.213,473.724 c 22.522,0 40.781,18.273 40.781,40.776 0,22.479 -18.259,40.825 -40.781,40.825 -22.506,0 -40.794,-18.346 -40.794,-40.825 0,-22.502 18.289,-40.776 40.794,-40.776 z" />
        <path
   inkscape:connector-curvature="0"
   id="path26"
   style="fill:#6495ed;fill-rule:nonzero"
   d="m 430.122,291.427 c 146.065,0 264.273,118.27 264.273,264.308 0,55.968 -17.411,107.881 -47.123,150.609 -47.716,68.621 -127.157,113.555 -217.15,113.555 -145.888,0 -264.181,-118.267 -264.181,-264.228 -0.014,-145.975 118.293,-264.244 264.181,-264.244 m 0,-47.073 c -171.629,0 -311.274,139.677 -311.274,311.317 0,171.632 139.645,311.295 311.274,311.295 171.681,0 311.335,-139.663 311.335,-311.335 C 741.48,383.987 601.838,244.354 430.122,244.354 Z" />
    </g><g
     id="g36"
     transform="matrix(2.1104614,0,0,2.1104614,320.08083,1498.426)">
        <path
   inkscape:connector-curvature="0"
   id="path30"
   style="fill:#ffffff;fill-rule:nonzero"
   d="m 1051.61,844.698 c -158.662,0 -287.753,-129.078 -287.753,-287.819 0,-158.644 129.05,-287.807 287.753,-287.807 158.67,0 287.84,129.095 287.84,287.807 0,158.741 -129.17,287.819 -287.84,287.819 z" />
        <path
   inkscape:connector-curvature="0"
   id="path32"
   style="fill:#231f20;fill-rule:nonzero"
   d="m 1053.77,405.891 c 88.36,0 159.98,71.612 159.98,159.943 0,88.383 -71.62,159.993 -159.98,159.993 -88.373,0 -160.008,-71.61 -160.008,-159.993 0,-88.331 71.634,-159.943 160.008,-159.943 z" />
        <path
   inkscape:connector-curvature="0"
   id="path34"
   style="fill:#ffffff;fill-rule:nonzero"
   d="m 1013.11,473.724 c 22.53,0 40.81,18.212 40.81,40.776 0,22.479 -18.28,40.825 -40.81,40.825 -22.513,0 -40.789,-18.346 -40.789,-40.825 0,-22.563 18.277,-40.776 40.789,-40.776 z" />
    </g><g
     id="g40"
     transform="matrix(2.1104614,0,0,2.1104614,320.08083,1498.426)">
        <path
   inkscape:connector-curvature="0"
   id="path38"
   style="fill:#6495ed;fill-rule:nonzero"
   d="m 1056.18,291.427 c 145.9,0 264.23,118.27 264.19,264.244 0,145.914 -118.29,264.228 -264.19,264.228 -146.001,0 -264.25,-118.349 -264.25,-264.228 0.022,-145.975 118.214,-264.244 264.25,-264.244 m 0,-47.073 c -171.679,0 -311.312,139.634 -311.312,311.277 0,171.673 139.656,311.335 311.312,311.335 171.65,0 311.3,-139.663 311.3,-311.295 0,-171.64 -139.65,-311.317 -311.3,-311.317 z" />
    </g></g>
</svg>